HIERARCHY
ROOT Pelvis
{
	OFFSET 0.000000 0.000000 0.000000
	CHANNELS 6 Xposition Yposition Zposition Xrotation Yrotation Zrotation
	JOINT LeftUpLeg_virtual
	{
		OFFSET 0.000000 0.000000 0.000000
		CHANNELS 3 Xrotation Yrotation Zrotation
		JOINT LeftUpLeg
		{
			OFFSET 18.735201 -5.666702 -4.541200
			CHANNELS 3 Xrotation Yrotation Zrotation
			JOINT LeftLeg
			{
				OFFSET -0.021200 -31.938179 0.493100
				CHANNELS 3 Xrotation Yrotation Zrotation
				JOINT LeftFoot
				{
					OFFSET 0.021200 -31.938179 -4.336299
					CHANNELS 3 Xrotation Yrotation Zrotation
					JOINT LeftToeBase
					{
						OFFSET 0.943001 -26.722000 15.023500
						CHANNELS 3 Xrotation Yrotation Zrotation
						End Site
						{
							OFFSET 0 0 0
						}
					}
				}
			}
		}
	}
	JOINT RightUpLeg_virtual
	{
		OFFSET 0.000000 0.000000 0.000000
		CHANNELS 3 Xrotation Yrotation Zrotation
		JOINT RightUpLeg
		{
			OFFSET -18.735201 -5.666702 -4.541200
			CHANNELS 3 Xrotation Yrotation Zrotation
			JOINT RightLeg
			{
				OFFSET 0.018946 -31.938133 0.493100
				CHANNELS 3 Xrotation Yrotation Zrotation
				JOINT RightFoot
				{
					OFFSET -0.018946 -31.938126 -4.336299
					CHANNELS 3 Xrotation Yrotation Zrotation
					JOINT RightToeBase
					{
						OFFSET -0.943001 -26.722004 15.023500
						CHANNELS 3 Xrotation Yrotation Zrotation
						End Site
						{
							OFFSET 0 0 0
						}
					}
				}
			}
		}
	}
	JOINT Hips_virtual
	{
		OFFSET 0.000000 0.000000 0.000000
		CHANNELS 3 Xrotation Yrotation Zrotation
		JOINT Hips
		{
			OFFSET -0.000000 -0.000000 -0.000000
			CHANNELS 3 Xrotation Yrotation Zrotation
			JOINT Spine
			{
				OFFSET 0.000000 10.199997 -0.299500
				CHANNELS 3 Xrotation Yrotation Zrotation
				JOINT Spine1
				{
					OFFSET 0.000000 11.900002 -1.516600
					CHANNELS 3 Xrotation Yrotation Zrotation
					JOINT Spine2
					{
						OFFSET 0.000000 13.600006 -2.842500
						CHANNELS 3 Xrotation Yrotation Zrotation
						JOINT Neck_virtual
						{
							OFFSET 0.000000 0.000000 0.000000
							CHANNELS 3 Xrotation Yrotation Zrotation
							JOINT Neck
							{
								OFFSET 0.000000 9.624100 -2.890100
								CHANNELS 3 Xrotation Yrotation Zrotation
								JOINT Head
								{
									OFFSET 0.000000 14.068802 -1.351900
									CHANNELS 3 Xrotation Yrotation Zrotation
									End Site
									{
										OFFSET 0 0 0
									}
								}
							}
						}
						JOINT LeftShoulder_virtual
						{
							OFFSET 0.000000 0.000000 0.000000
							CHANNELS 3 Xrotation Yrotation Zrotation
							JOINT LeftShoulder
							{
								OFFSET 15.263000 10.923401 -0.547700
								CHANNELS 3 Xrotation Yrotation Zrotation
								JOINT LeftArm
								{
									OFFSET 25.438599 -2.830597 -13.032500
									CHANNELS 3 Xrotation Yrotation Zrotation
									JOINT LeftForeArm
									{
										OFFSET 29.960503 0.000000 0.000000
										CHANNELS 3 Xrotation Yrotation Zrotation
										JOINT LeftHand
										{
											OFFSET 27.849251 0.000000 0.000000
											CHANNELS 3 Xrotation Yrotation Zrotation
											End Site
											{
												OFFSET 0 0 0
											}
										}
									}
								}
							}
						}
						JOINT RightShoulder_virtual
						{
							OFFSET 0.000000 0.000000 0.000000
							CHANNELS 3 Xrotation Yrotation Zrotation
							JOINT RightShoulder
							{
								OFFSET -15.263000 10.923401 -0.547700
								CHANNELS 3 Xrotation Yrotation Zrotation
								JOINT RightArm
								{
									OFFSET -25.438599 -2.830597 -13.032500
									CHANNELS 3 Xrotation Yrotation Zrotation
									JOINT RightForeArm
									{
										OFFSET -29.960503 0.000000 0.000000
										CHANNELS 3 Xrotation Yrotation Zrotation
										JOINT RightHand
										{
											OFFSET -27.849251 0.000000 0.000000
											CHANNELS 3 Xrotation Yrotation Zrotation
											End Site
											{
												OFFSET 0 0 0
											}
										}
									}
								}
							}
						}
					}
				}
			}
		}
	}
}
MOTION
Frames: 6
Frame Time: 0.03333333
15.900906 86.682007 -23.330477 0.000000 0.000000 0.000000 22.367498 -66.567030 22.146938 -43.102520 -4.286500 24.532107 21.120758 13.408478 -11.358862 -25.657833 19.295969 -18.237365 0.000000 0.000000 0.000000 25.828856 -36.204954 35.147238 -32.543628 -18.633820 -8.655252 45.409652 -1.750828 -1.118948 -4.964278 -4.102210 8.055138 0.000000 0.000000 0.000000 10.728428 -69.454472 19.589599 52.650148 -47.071635 48.210627 14.218949 -0.530671 4.559948 3.283571 -0.259664 3.818840 0.000000 0.000000 0.000000 -8.675764 -1.886980 1.462719 -4.021911 -0.243159 -0.922716 0.000000 0.000000 0.000000 -5.099778 -1.588587 5.278013 -1.206922 -13.454913 13.956241 -59.379056 -15.916513 -35.616103 -18.540094 -60.333636 -13.455006 0.000000 0.000000 0.000000 -0.404858 -1.340419 1.079907 4.710568 5.018187 2.928446 7.573794 6.143162 57.430334 5.691762 38.240238 4.616388 0.000000 0.000000 0.000000 
15.958261 86.769218 -23.404453 0.000000 0.000000 0.000000 21.914664 -66.603005 21.610365 -43.208665 -4.220196 24.320236 21.070375 13.493717 -11.351853 -25.656602 19.385644 -18.222709 0.000000 0.000000 0.000000 25.679932 -36.371130 35.191990 -32.752683 -18.654734 -8.643641 45.246393 -1.706976 -1.171507 -5.106323 -4.041684 7.999812 0.000000 0.000000 0.000000 10.504965 -68.977718 19.321113 52.690367 -47.425278 48.413805 14.149308 -0.531797 4.602847 3.272296 -0.272372 3.847260 0.000000 0.000000 0.000000 -8.608349 -2.108886 1.530664 -4.037766 -0.418326 -0.856552 0.000000 0.000000 0.000000 -4.993191 -1.570578 5.290472 -1.211971 -13.408708 13.834701 -59.407729 -15.836050 -35.548252 -18.667418 -60.405715 -13.338656 0.000000 0.000000 0.000000 -0.318432 -1.373269 1.097786 4.624654 4.808970 3.070791 7.233825 6.162144 57.835774 5.493312 38.361037 4.873772 0.000000 0.000000 0.000000 
16.011765 86.843933 -23.470819 0.000000 0.000000 0.000000 21.472274 -66.658726 21.086010 -43.321851 -4.159243 24.107378 21.035509 13.581053 -11.346697 -25.646223 19.476356 -18.205492 0.000000 0.000000 0.000000 25.533394 -36.554384 35.239760 -32.970740 -18.678954 -8.634494 45.103065 -1.653683 -1.223194 -5.232684 -3.970389 7.953535 0.000000 0.000000 0.000000 10.304120 -68.513238 19.074618 52.733015 -47.777914 48.637193 14.067750 -0.534169 4.635526 3.255011 -0.284975 3.868097 0.000000 0.000000 0.000000 -8.533608 -2.301382 1.581879 -4.049734 -0.574479 -0.799986 0.000000 0.000000 0.000000 -4.903768 -1.556858 5.291701 -1.228818 -13.384448 13.684790 -59.462329 -15.719465 -35.498091 -18.819458 -60.459346 -13.247916 0.000000 0.000000 0.000000 -0.242600 -1.405402 1.109589 4.537601 4.592272 3.201148 6.907253 6.201075 58.224105 5.301821 38.520092 5.123158 0.000000 0.000000 0.000000 
16.058475 86.907104 -23.531151 0.000000 0.000000 0.000000 21.046557 -66.732861 20.579835 -43.437831 -4.104040 23.895593 21.016525 13.669920 -11.341949 -25.626590 19.567027 -18.184004 0.000000 0.000000 0.000000 25.394618 -36.752719 35.290706 -33.189781 -18.707193 -8.626837 44.977885 -1.590137 -1.272065 -5.344848 -3.888638 7.920216 0.000000 0.000000 0.000000 10.129142 -68.067507 18.852680 52.780816 -48.129372 48.870352 13.976762 -0.536652 4.656451 3.232787 -0.296850 3.880704 0.000000 0.000000 0.000000 -8.451599 -2.465756 1.617528 -4.057468 -0.712144 -0.752611 0.000000 0.000000 0.000000 -4.832772 -1.547051 5.281869 -1.257791 -13.379716 13.507558 -59.546040 -15.565086 -35.466597 -19.002155 -60.495566 -13.189072 0.000000 0.000000 0.000000 -0.177699 -1.436569 1.114633 4.449531 4.369981 3.315255 6.593722 6.261274 58.590442 5.119567 38.717614 5.360775 0.000000 0.000000 0.000000 
16.096485 86.960625 -23.585833 0.000000 0.000000 0.000000 20.645625 -66.823033 20.099672 -43.551257 -4.054941 23.687678 21.012763 13.759320 -11.336370 -25.598253 19.656338 -18.157091 0.000000 0.000000 0.000000 25.268975 -36.964325 35.345081 -33.401862 -18.740221 -8.619736 44.867878 -1.516491 -1.316349 -5.445294 -3.797747 7.902715 0.000000 0.000000 0.000000 9.980388 -67.645456 18.655511 52.827248 -48.481974 49.098081 13.879432 -0.538124 4.665270 3.206940 -0.307414 3.885165 0.000000 0.000000 0.000000 -8.363647 -2.604806 1.639942 -4.061357 -0.832852 -0.713397 0.000000 0.000000 0.000000 -4.779634 -1.540428 5.261977 -1.297711 -13.390680 13.306674 -59.657980 -15.372661 -35.452281 -19.217552 -60.514397 -13.165006 0.000000 0.000000 0.000000 -0.123630 -1.466388 1.112853 4.360555 4.144358 3.410735 6.291110 6.341502 58.932218 4.947071 38.952186 5.584346 0.000000 0.000000 0.000000 
16.125082 87.006851 -23.633820 0.000000 0.000000 0.000000 20.278533 -66.926162 19.654464 -43.656455 -4.012364 23.486866 21.022660 13.847955 -11.328970 -25.562362 19.742843 -18.124204 0.000000 0.000000 0.000000 25.161170 -37.188235 35.403121 -33.600344 -18.778763 -8.612666 44.769394 -1.434129 -1.354751 -5.537083 -3.700116 7.902108 0.000000 0.000000 0.000000 9.855476 -67.250261 18.481153 52.859469 -48.839630 49.303966 13.779090 -0.537616 4.662660 3.178844 -0.316179 3.882169 0.000000 0.000000 0.000000 -8.271917 -2.722088 1.651856 -4.062263 -0.938700 -0.681073 0.000000 0.000000 0.000000 -4.742441 -1.536076 5.233692 -1.346334 -13.412869 13.087969 -59.793477 -15.143591 -35.451868 -19.463220 -60.515264 -13.174762 0.000000 0.000000 0.000000 -0.079943 -1.494429 1.104749 4.270874 3.917745 3.487343 5.996071 6.438183 59.248804 4.783227 39.220350 5.793115 0.000000 0.000000 0.000000 
